<svg xmlns="http://www.w3.org/2000/svg" version="1.1" xmlns:xlink="http://www.w3.org/1999/xlink" xmlns:svgjs="http://svgjs.com/svgjs" width="1440" height="560" preserveAspectRatio="none" viewBox="0 0 1440 560">
    <g mask="url(&quot;#SvgjsMask1042&quot;)" fill="none">
        <rect width="1440" height="560" x="0" y="0" fill="rgba(28, 138, 163, 1)"></rect>
        <path d="M0,525.603C114.519,529.822,232.363,571.229,336.825,524.109C446.951,474.434,538.235,378.148,579.014,264.427C618.627,153.959,578.304,35.108,553.29,-79.551C529.97,-186.443,505.515,-293.478,438.442,-379.912C369.031,-469.359,276.894,-541.206,168.831,-574.986C59.717,-609.095,-59.896,-608.823,-167.136,-569.214C-270.724,-530.954,-344.079,-444.236,-414.798,-359.424C-484.314,-276.055,-563.428,-190.515,-573.061,-82.394C-582.542,24.015,-508.181,114.658,-465.774,212.712C-422.358,313.099,-412.033,438.876,-321.243,499.865C-230.228,561.006,-109.571,521.566,0,525.603" fill="#146375"></path>
        <path d="M1440 1048.018C1529.054 1026.2 1605.547 983.1030000000001 1691.635 951.5509999999999 1807.261 909.173 1956.251 927.1759999999999 2032.835 830.739 2109.958 733.6220000000001 2116.687 585.519 2075.09 468.688 2035.271 356.849 1910.104 307.83799999999997 1819.393 231.25400000000002 1744.041 167.63799999999998 1673.251 106.118 1587.648 57.15899999999999 1477.47-5.855000000000018 1365.962-141.231 1247.417-95.87599999999998 1125.574-49.259000000000015 1162.747 147.38299999999998 1082.664 250.36599999999999 1009.3340000000001 344.66499999999996 841.031 354.327 808.043 469.13800000000003 775.509 582.37 877.473 687.38 926.292 794.602 975.173 901.961 988.529 1045.702 1094.32 1097.8890000000001 1200.885 1150.458 1324.587 1076.2930000000001 1440 1048.018" fill="#24b1d1"></path>
    </g>
    <defs>
        <mask id="SvgjsMask1042">
            <rect width="1440" height="560" fill="#ffffff"></rect>
        </mask>
    </defs>
</svg>